<svg width="181" height="48" viewBox="0 0 181 48" fill="none" xmlns="http://www.w3.org/2000/svg">
<path d="M49.3657 30.9201C48.3513 30.9201 47.6393 30.7364 47.2298 30.3666C46.818 29.9968 46.6133 29.3734 46.6133 28.4966V6.60539C46.9134 6.22162 47.3601 5.92158 47.9488 5.70295C48.5374 5.48432 49.1888 5.375 49.9008 5.375C50.75 5.375 51.5108 5.52618 52.1809 5.82622C52.8509 6.12859 53.4465 6.72866 53.9677 7.63343L59.8842 18.272C60.431 19.2582 60.9591 20.2769 61.4663 21.3329C61.9735 22.3865 62.4179 23.3517 62.8018 24.2286L62.967 24.1867C62.8297 22.5702 62.7413 21.0026 62.6994 19.4838C62.6576 17.965 62.6366 16.4648 62.6366 14.9855V5.66109C62.8553 5.60759 63.1904 5.54479 63.644 5.47734C64.0954 5.40989 64.5537 5.375 65.0214 5.375C66.0335 5.375 66.7524 5.55875 67.1782 5.92856C67.6016 6.29838 67.8157 6.92171 67.8157 7.79856V29.9782C67.5132 30.2805 67.0828 30.5131 66.5221 30.6759C65.9613 30.8411 65.2959 30.9225 64.5305 30.9225C63.7092 30.9225 62.9624 30.7783 62.2923 30.4922C61.6199 30.2038 61.0243 29.6084 60.5055 28.7059L54.5889 18.0673C54.0398 17.1091 53.514 16.0903 53.0068 15.0065C52.4996 13.9249 52.0552 12.9457 51.6713 12.0689L51.4247 12.1107C51.562 13.6179 51.6504 15.1646 51.6923 16.7532C51.7341 18.3418 51.7528 19.849 51.7528 21.2701V30.5945C51.5341 30.648 51.2037 30.7178 50.7663 30.7992C50.3289 30.8806 49.8636 30.9225 49.3703 30.9225L49.3657 30.9201Z" fill="#001A45"/>
<path d="M79.0303 10.5896C81.7152 10.5896 83.858 11.1641 85.461 12.3154C87.064 13.4667 87.8644 15.246 87.8644 17.6556V27.1429C87.8644 27.8011 87.6992 28.3198 87.3711 28.7036C87.0431 29.0873 86.6313 29.4292 86.138 29.7316C85.3703 30.1968 84.3978 30.5666 83.2205 30.841C82.0432 31.1155 80.7008 31.2527 79.1931 31.2527C76.4547 31.2527 74.298 30.7248 72.7228 29.6711C71.1477 28.6175 70.3613 27.0359 70.3613 24.9263C70.3613 23.0912 70.943 21.6887 72.1086 20.7165C73.2719 19.7443 74.9634 19.1488 77.1829 18.9302L82.811 18.3557V17.6161C82.811 16.5764 82.4341 15.8089 81.6803 15.3158C80.9265 14.8227 79.8655 14.5762 78.4952 14.5762C77.4272 14.5762 76.3849 14.7064 75.3728 14.9669C74.3584 15.2274 73.4557 15.5484 72.6623 15.9321C72.3599 15.7135 72.1086 15.4181 71.9015 15.0483C71.6968 14.6785 71.5944 14.2761 71.5944 13.8365C71.5944 13.29 71.7247 12.8434 71.9853 12.5015C72.2459 12.1596 72.6623 11.8502 73.2393 11.5781C74.0327 11.2501 74.9378 11.0036 75.9522 10.8385C76.9642 10.6733 77.9926 10.5919 79.0326 10.5919L79.0303 10.5896ZM79.1954 27.3057C79.9888 27.3057 80.7147 27.2313 81.3732 27.0801C82.0316 26.9289 82.5085 26.7452 82.811 26.5265V21.9678L78.8255 22.3376C77.7297 22.4469 76.8944 22.6865 76.3198 23.0563C75.7451 23.4261 75.4566 24.0076 75.4566 24.8007C75.4566 25.5939 75.7498 26.2102 76.3407 26.6498C76.9293 27.0871 77.8809 27.308 79.1954 27.308V27.3057Z" fill="#001A45"/>
<path d="M108.652 28.3943C108.433 28.8199 108.035 29.1944 107.46 29.5246C106.665 30.0177 105.66 30.4271 104.44 30.7574C103.221 31.0853 101.832 31.2504 100.271 31.2504C98.8473 31.2504 97.5607 31.0923 96.4091 30.7783C95.2597 30.4643 94.2732 29.9782 93.4519 29.32C92.6306 28.6617 92.0001 27.8267 91.5627 26.815C91.1253 25.8032 90.9043 24.5961 90.9043 23.2006V11.2479C91.123 11.1665 91.4441 11.0897 91.8698 11.0223C92.2933 10.9548 92.7656 10.9199 93.2867 10.9199C94.2453 10.9199 94.9572 11.092 95.4226 11.4339C95.8879 11.7758 96.1205 12.4131 96.1205 13.3435V23.1192C96.1205 24.5426 96.4835 25.5637 97.2094 26.18C97.9353 26.7964 98.9683 27.1034 100.311 27.1034C101.16 27.1034 101.879 27.022 102.468 26.8569C103.056 26.6917 103.501 26.515 103.803 26.3219V11.2479C104.022 11.1665 104.343 11.0897 104.769 11.0223C105.192 10.9548 105.653 10.9199 106.146 10.9199C107.132 10.9199 107.851 11.092 108.303 11.4339C108.754 11.7758 108.98 12.4131 108.98 13.3435V26.815C108.98 27.4453 108.87 27.971 108.652 28.3966V28.3943Z" fill="#001A45"/>
<path d="M118.124 26.4847C118.659 26.8684 119.403 27.0591 120.362 27.0591C120.827 27.0591 121.3 27.0056 121.779 26.894C122.258 26.7847 122.689 26.6475 123.072 26.4823C123.291 26.701 123.477 26.9684 123.626 27.2824C123.777 27.5987 123.852 27.9593 123.852 28.3709C123.852 29.192 123.482 29.8711 122.742 30.4038C122.002 30.9364 120.811 31.2039 119.168 31.2039C117.005 31.2039 115.299 30.7178 114.052 29.7455C112.805 28.7733 112.182 27.1661 112.182 24.9193V6.06574C112.4 6.01225 112.721 5.94247 113.147 5.86106C113.571 5.77966 114.031 5.73779 114.525 5.73779C115.483 5.73779 116.188 5.91688 116.639 6.27274C117.091 6.6286 117.316 7.25892 117.316 8.16136V11.5711H123.356C123.494 11.7897 123.617 12.0781 123.726 12.434C123.836 12.7899 123.891 13.1736 123.891 13.583C123.891 14.2947 123.726 14.8157 123.398 15.1437C123.07 15.4716 122.63 15.6367 122.084 15.6367H117.319V24.5914C117.319 25.4682 117.586 26.0986 118.119 26.48L118.124 26.4847Z" fill="#001A45"/>
<path d="M125.662 5.37259C125.662 4.57946 125.944 3.90031 126.504 3.33977C127.065 2.77923 127.784 2.4978 128.661 2.4978C129.538 2.4978 130.25 2.77923 130.797 3.33977C131.344 3.90263 131.618 4.57946 131.618 5.37259C131.618 6.16571 131.344 6.88674 130.797 7.44728C130.248 8.01014 129.536 8.28924 128.661 8.28924C127.786 8.28924 127.065 8.00781 126.504 7.44728C125.944 6.88674 125.662 6.19362 125.662 5.37259ZM126.074 11.3292C126.293 11.2757 126.614 11.2059 127.039 11.1245C127.463 11.0431 127.924 11.0012 128.417 11.0012C129.403 11.0012 130.122 11.1803 130.574 11.5362C131.025 11.892 131.251 12.5223 131.251 13.4248V30.5944C131.032 30.6479 130.709 30.7177 130.285 30.7991C129.859 30.8805 129.401 30.9224 128.908 30.9224C127.921 30.9224 127.202 30.7433 126.751 30.3874C126.3 30.0316 126.074 29.4013 126.074 28.4988V11.3292Z" fill="#001A45"/>
<path d="M139.117 30.7967C138.692 30.8781 138.233 30.92 137.74 30.92C136.754 30.92 136.035 30.7409 135.583 30.385C135.132 30.0292 134.906 29.3989 134.906 28.4964V3.93513C135.125 3.85372 135.446 3.77697 135.872 3.70952C136.295 3.64207 136.756 3.60718 137.249 3.60718C138.236 3.60718 138.955 3.78627 139.406 4.14213C139.857 4.49799 140.083 5.12831 140.083 6.03075V30.592C139.864 30.6455 139.541 30.7153 139.117 30.7967Z" fill="#001A45"/>
<path d="M161.243 28.3943C161.025 28.8199 160.627 29.1944 160.052 29.5246C159.257 30.0177 158.251 30.4271 157.032 30.7574C155.813 31.0853 154.424 31.2504 152.863 31.2504C151.439 31.2504 150.153 31.0923 149.001 30.7783C147.851 30.4643 146.865 29.9782 146.044 29.32C145.222 28.6617 144.592 27.8267 144.155 26.815C143.717 25.8032 143.496 24.5961 143.496 23.2006V11.2479C143.715 11.1665 144.036 11.0897 144.462 11.0223C144.885 10.9548 145.357 10.9199 145.879 10.9199C146.837 10.9199 147.549 11.092 148.014 11.4339C148.48 11.7758 148.712 12.4131 148.712 13.3435V23.1192C148.712 24.5426 149.075 25.5637 149.801 26.18C150.527 26.7964 151.56 27.1034 152.903 27.1034C153.752 27.1034 154.471 27.022 155.059 26.8569C155.648 26.6917 156.092 26.515 156.395 26.3219V11.2479C156.614 11.1665 156.935 11.0897 157.36 11.0223C157.784 10.9548 158.244 10.9199 158.738 10.9199C159.724 10.9199 160.443 11.092 160.894 11.4339C161.346 11.7758 161.572 12.4131 161.572 13.3435V26.815C161.572 27.4453 161.462 27.971 161.243 28.3966V28.3943Z" fill="#001A45"/>
<path d="M179.854 25.1286C179.854 27.0451 179.142 28.5453 177.718 29.6268C176.294 30.7083 174.212 31.2503 171.473 31.2503C170.349 31.2503 169.33 31.1689 168.411 31.0037C167.492 30.8386 166.699 30.599 166.029 30.285C165.357 29.971 164.838 29.5873 164.468 29.136C164.098 28.6848 163.914 28.1848 163.914 27.6359C163.914 27.0869 164.03 26.6636 164.263 26.2799C164.496 25.8961 164.803 25.5821 165.187 25.3356C165.952 25.8286 166.836 26.2659 167.837 26.6497C168.837 27.0335 169.993 27.2242 171.308 27.2242C172.432 27.2242 173.281 27.0404 173.856 26.6706C174.43 26.3008 174.719 25.7868 174.719 25.1309C174.719 24.0075 173.898 23.2702 172.253 22.912L169.952 22.377C167.925 21.9119 166.424 21.2141 165.452 20.2814C164.479 19.3511 163.993 18.1044 163.993 16.5437C163.993 14.7644 164.705 13.3201 166.129 12.2106C167.553 11.1012 169.554 10.5476 172.127 10.5476C173.113 10.5476 174.023 10.6244 174.858 10.7732C175.694 10.9244 176.42 11.143 177.036 11.4314C177.653 11.7199 178.132 12.0618 178.474 12.4595C178.816 12.8572 178.988 13.3154 178.988 13.8364C178.988 14.3295 178.879 14.7598 178.66 15.1296C178.441 15.4994 178.181 15.7948 177.878 16.0134C177.632 15.8483 177.311 15.6855 176.913 15.5203C176.515 15.3552 176.078 15.2063 175.598 15.0691C175.119 14.9319 174.612 14.8156 174.079 14.7202C173.544 14.6249 173.018 14.576 172.497 14.576C171.429 14.576 170.594 14.7481 169.991 15.0901C169.389 15.432 169.086 15.9181 169.086 16.5484C169.086 17.0136 169.256 17.3973 169.6 17.6974C169.942 17.9997 170.538 18.2463 171.387 18.437L173.4 18.9301C175.673 19.4511 177.315 20.2093 178.33 21.2094C179.342 22.2096 179.849 23.5167 179.849 25.1332L179.854 25.1286Z" fill="#001A45"/>
<path d="M16.5128 2.45114C14.5189 2.77676 11.129 4.06297 7.02021 8.56355C4.82622 10.9639 5.3846 14.3341 7.39014 16.8949C9.93079 20.1371 13.2578 22.9189 20.2121 25.1541C21.3986 25.5355 22.4223 24.2981 21.729 23.2631C19.2651 19.5929 16.2405 12.9548 18.06 4.06297C18.2507 3.13029 17.4527 2.29996 16.5128 2.45346V2.45114Z" fill="#00417C"/>
<path d="M1.67418 17.1809C0.541122 19.6114 -0.803658 24.2376 0.603939 30.9966C0.911051 32.4666 2.14648 33.5597 3.64249 33.683C7.42555 33.9947 14.9056 33.9226 21.1874 29.6546C22.4229 28.8173 21.9808 26.8961 20.5057 26.6751C16.2062 26.0309 9.23332 23.8887 4.05662 16.9343C3.42611 16.0877 2.12089 16.225 1.67418 17.1809Z" fill="#00417C"/>
<path d="M22.8168 30.4826C19.4479 33.1504 13.4522 36.5415 4.77861 36.4694C3.67812 36.4601 3.03366 37.7068 3.66882 38.6069C5.11597 40.6513 7.71479 43.7006 11.6305 46.0706C14.2177 47.6359 17.547 47.1708 19.5991 44.9496C22.0351 42.3143 24.9573 38.0649 25.8391 32.2433C26.095 30.5523 24.1546 29.422 22.8145 30.4826H22.8168Z" fill="#00417C"/>
<path d="M27.5621 30.776C27.3085 34.6904 26.2313 40.7191 22.4063 46.2663C21.9573 46.9176 22.2784 47.5339 23.0485 47.3455C25.9125 46.6385 31.2707 45.0615 35.2794 40.547C35.8169 39.9399 36.0007 39.098 35.7657 38.3234C35.2283 36.5465 33.8858 33.1367 30.817 29.6619C29.7188 28.4175 27.6668 29.1223 27.5598 30.7783L27.5621 30.776Z" fill="#00417C"/>
<path d="M30.9778 27.529C33.2881 29.4572 36.1498 32.4878 37.7948 36.6209C37.7948 36.6209 40.1353 32.6739 40.7356 27.5523C40.9333 25.8707 39.9283 24.6356 38.3136 24.1216C36.5523 23.5587 34.7492 23.2913 32.1039 23.8681C30.3054 24.2612 29.5655 26.3475 30.9778 27.529Z" fill="#00417C"/>
<path d="M39.3034 21.5654C39.3988 21.7864 39.3104 22.0399 39.0754 21.9934C36.5255 21.4863 32.8657 21.6468 29.9086 23.4633C29.4712 23.7308 28.8384 23.4331 28.5499 22.9795C28.5452 22.9726 28.5406 22.9633 28.5359 22.9563C28.2032 22.4376 28.4545 21.9306 28.7779 21.4072C29.3549 20.4746 32.3725 16.9741 35.1435 17.1439C36.5953 17.2323 38.3007 19.2395 39.3034 21.5677V21.5654Z" fill="#00417C"/>
<path d="M38.981 5.39344C39.7022 5.85861 39.665 6.92852 38.9089 7.33555C36.5241 8.62641 32.1664 11.3314 29.6676 15.011C27.9063 17.602 27.0106 19.7046 26.4452 21.5583C25.8659 23.4539 23.2345 23.5842 22.4946 21.7467C21.4989 19.272 20.3891 15.8413 20.2425 11.4175C20.1634 9.02182 20.5705 6.02143 20.759 4.00489C20.8986 2.5233 22.0363 1.3278 23.5137 1.1301C26.5313 0.725398 32.0593 0.923095 38.981 5.39344Z" fill="#00417C"/>
<path d="M58.9148 46.9594H57.6841V36.2324L53.0611 46.9594H52.0351L47.4586 36.2487L47.4912 46.9594H46.2441V34.8113H48.138L52.526 45.287L57.0559 34.8113H58.9172V46.9594H58.9148Z" fill="#00417C"/>
<path d="M78.4174 46.9594H77.075L75.3556 42.8588H69.7229L68.0198 46.9594H66.4727L71.9006 34.8113H73.257L78.4174 46.9594ZM74.9299 41.7703L72.6102 36.2161L70.2441 41.7703H74.9299Z" fill="#00417C"/>
<path d="M93.0898 46.9593H91.5914L87.4896 41.4702H88.6739C89.7301 41.4702 90.584 41.2028 91.1982 40.6492C91.8148 40.098 92.1126 39.4188 92.066 38.5815C92.0335 37.8256 91.7659 37.2092 91.2448 36.7347C90.6934 36.2137 89.9512 35.9626 89.0345 35.9626H86.3193V46.957H85.0723V34.8252H88.9554C90.2978 34.8252 91.3704 35.2043 92.1754 35.9439C92.9804 36.6859 93.3597 37.6325 93.3434 38.7838C93.3271 39.7305 92.9967 40.5515 92.3801 41.2446C91.7636 41.9238 90.9912 42.3169 90.0768 42.3959L89.7301 42.4285L93.0921 46.957L93.0898 46.9593Z" fill="#00417C"/>
<path d="M108.695 46.9592H107.226L103.092 41.6911L101.531 43.6635V46.9615H100.316V34.8135H101.594V41.7237L107.147 34.8135H108.695L103.897 40.7282L108.695 46.9592Z" fill="#00417C"/>
<path d="M122.029 46.9592H118.541C116.71 46.9592 115.4 45.887 115.4 43.9774V37.8092C115.4 35.8996 116.71 34.8274 118.541 34.8274H122.029V35.9624H118.541C117.911 35.9624 117.469 36.088 117.215 36.3415C116.82 36.7672 116.615 37.1765 116.615 37.6045V40.2234H120.67V41.3747H116.615V44.1821C116.615 44.6077 116.82 45.0171 117.215 45.445C117.469 45.6962 117.908 45.8242 118.541 45.8242H122.029V46.9592Z" fill="#00417C"/>
<path d="M132.458 46.9596H131.243V35.9651H128.498V34.8301H135.22V35.9651H132.458V46.9596Z" fill="#00417C"/>
<path d="M143.107 46.9594H141.893V34.8113H143.107V46.9594Z" fill="#00417C"/>
<path d="M159.898 46.9594H158.541L151.566 36.3906V46.9594H150.303V34.8113H151.943L158.651 45.0033V34.8113H159.898V46.9594Z" fill="#00417C"/>
<path d="M180.002 41.3749C179.814 43.2682 178.993 44.7521 177.541 45.8406C176.326 46.7407 175.016 47.1966 173.581 47.1803C171.829 47.164 170.298 46.55 169.004 45.3196C167.711 44.0892 167.064 42.6053 167.08 40.8865C167.097 39.1188 167.711 37.6372 168.942 36.4371C170.189 35.2369 171.703 34.6392 173.502 34.6392C174.812 34.6392 175.917 34.8904 176.815 35.3974C177.778 35.9486 178.583 36.8325 179.246 38.0791H177.89C176.817 36.5185 175.333 35.7602 173.439 35.7765C172.066 35.7928 170.882 36.2812 169.872 37.2441C168.83 38.2373 168.295 39.4212 168.246 40.826C168.213 42.2308 168.718 43.4287 169.744 44.4218C170.738 45.3847 172.001 45.9197 173.5 46.015C174.526 46.0941 175.519 45.7778 176.512 45.0684C177.506 44.359 178.185 43.4915 178.532 42.4657L171.731 42.4495V41.361L180 41.3772L180.002 41.3749Z" fill="#00417C"/>
</svg>
